<?xml version="1.0" encoding="UTF-8"?>
<svg width="120px" height="120px" viewBox="0 0 120 120" version="1.1" xmlns="http://www.w3.org/2000/svg" xmlns:xlink="http://www.w3.org/1999/xlink">
    <title>illustration_mail_select</title>
    <defs>
        <radialGradient cx="40.5542815%" cy="-76.614242%" fx="40.5542815%" fy="-76.614242%" r="247.584808%" gradientTransform="translate(0.405543,-0.766142),scale(0.736322,1.000000),translate(-0.405543,0.766142)" id="radialGradient-1">
            <stop stop-color="#605D5A" offset="0%"></stop>
            <stop stop-color="#605D5A" offset="35%"></stop>
            <stop stop-color="#797673" offset="71%"></stop>
            <stop stop-color="#797673" offset="100%"></stop>
        </radialGradient>
        <radialGradient cx="64.8536815%" cy="-0.830951915%" fx="64.8536815%" fy="-0.830951915%" r="108.9643%" gradientTransform="translate(0.648537,-0.008310),scale(0.796428,1.000000),translate(-0.648537,0.008310)" id="radialGradient-2">
            <stop stop-color="#797673" offset="0%"></stop>
            <stop stop-color="#797673" offset="16%"></stop>
            <stop stop-color="#B3AFAB" offset="71%"></stop>
            <stop stop-color="#B3AFAB" offset="100%"></stop>
        </radialGradient>
    </defs>
    <g id="illustration_mail_select" stroke="none" stroke-width="1" fill="none" fill-rule="evenodd">
        <g id="Group-2">
            <g id="Group" transform="translate(5.600000, 2.400000)">
                <g id="Dark-/-empty_state_mail_error">
                    <g id="Mail-/-Status-/-Color">
                        <g id="Envelope-02" transform="translate(0.731063, 0.731248)">
                            <path d="M85.5641872,2.59466212e-07 C87.8051872,-0.00074817995 89.7821872,1.61775182 90.1639372,3.90150182 L90.1639372,3.90150182 L97.6651413,48.892828 C95.6195492,48.2280553 93.4362031,47.8687518 91.1689372,47.8687518 C81.8862665,47.8687518 74.0103089,53.8916065 71.2356838,62.2426962 L13.6211872,71.8477518 C11.0779372,72.2715018 8.67193723,70.5532518 8.24818723,68.0100018 L8.24818723,68.0100018 L0.0641872346,18.9217518 C-0.359562765,16.3777518 1.35943723,13.9732518 3.90268723,13.5487518 L3.90268723,13.5487518 L84.7901872,0.0637518201 C85.0504372,0.0210018201 85.3091872,2.59466212e-07 85.5641872,2.59466212e-07 Z" id="Fill-2" fill="url(#radialGradient-1)" fill-rule="nonzero"></path>
                            <path d="M85.5641872,1.55950111e-06 L85.7801894,0.00495187091 C86.7135437,0.0480904594 87.5927682,0.371357882 88.3192747,0.904103812 L51.2182372,45.2222268 L0.84765406,15.4731422 C1.54170193,14.4841262 2.61684691,13.7633745 3.90268723,13.5487518 L3.90268723,13.5487518 L84.7901872,0.0637518201 C85.0504372,0.0210018201 85.3091872,1.55950111e-06 85.5641872,1.55950111e-06 L85.5641872,1.55950111e-06 Z" id="Clip-6" fill="#797673"></path>
                        </g>
                        <g id="Envelope-01" transform="translate(24.059255, 55.088250)" fill-rule="nonzero">
                            <path d="M13.0284953,0 C13.3794953,0 13.7357453,0.0405 14.0919953,0.12375 L14.0919953,0.12375 L47.8531504,8.0515706 C47.1958443,10.0867645 46.8407453,12.2577883 46.8407453,14.51175 C46.8407453,26.1097297 56.2427655,35.51175 67.8407453,35.51175 C70.0939678,35.51175 72.2643069,35.1568838 74.2989225,34.4999914 L69.3437453,55.599 C68.7587453,58.08975 66.2649953,59.63475 63.7742453,59.0505 L63.7742453,59.0505 L3.57474525,44.91375 C1.08399525,44.32875 -0.461754747,41.835 0.123995253,39.34425 L0.123995253,39.34425 L8.52324525,3.5745 C9.02424525,1.44 10.9269953,0 13.0284953,0 Z" id="Fill-10" fill="url(#radialGradient-2)"></path>
                            <path d="M13.0284953,4.26325641e-14 C13.3794953,4.26325641e-14 13.7357453,0.0405 14.0919953,0.12375 L14.0919953,0.12375 L47.8531504,8.0515706 C47.1958443,10.0867645 46.8407453,12.2577883 46.8407453,14.51175 C46.8407453,20.2396481 49.1339723,25.4319342 52.8523923,29.2205746 L37.5972203,36.845925 L10.5958816,0.693766528 C11.314651,0.249138674 12.15438,4.26325641e-14 13.0284953,4.26325641e-14 Z" id="Fill-9" fill="#B3AFAB"></path>
                        </g>
                    </g>
                </g>
                <g id="Mail-/-Status-/-Prop-/-Select" transform="translate(75.200000, 52.000000)" fill="#0078D4">
                    <g id="Mail-/-Prop-/-Select">
                        <path d="M17.6,0 C7.84864865,0 0,7.92792793 0,17.6 C0,27.2720721 7.92792793,35.2 17.6,35.2 C27.2720721,35.2 35.2,27.2720721 35.2,17.6 C35.2,7.92792793 27.3513514,0 17.6,0 Z M27.5606241,13.3557299 L16.7347177,26.4 L9.06965989,19.9183751 C8.20042653,19.1891923 8.12140532,17.8928673 8.83259625,17.0826642 C9.54378718,16.2724611 10.7291054,16.1104205 11.5983388,16.8396033 L16.2605904,20.8095985 L24.5578179,10.6820596 C25.2690089,9.87185653 26.5333483,9.70981591 27.3235604,10.4389987 C28.1927938,11.2492018 28.271815,12.4645065 27.5606241,13.3557299 Z" id="Shape"></path>
                    </g>
                </g>
            </g>
            <rect id="Rectangle" x="0" y="0" width="120" height="120"></rect>
        </g>
    </g>
</svg>