<?xml version="1.0" encoding="UTF-8"?>
<svg width="120px" height="120px" viewBox="0 0 120 120" version="1.1" xmlns="http://www.w3.org/2000/svg" xmlns:xlink="http://www.w3.org/1999/xlink">
    <title>illustration_mail</title>
    <defs>
        <radialGradient cx="49.7306234%" cy="28.136683%" fx="49.7306234%" fy="28.136683%" r="107.646965%" gradientTransform="translate(0.497306,0.281367),scale(0.728155,1.000000),translate(-0.497306,-0.281367)" id="radialGradient-1">
            <stop stop-color="#605D5A" offset="0%"></stop>
            <stop stop-color="#797673" offset="81.68%"></stop>
            <stop stop-color="#797673" offset="100%"></stop>
        </radialGradient>
        <radialGradient cx="43.7278716%" cy="31.2339748%" fx="43.7278716%" fy="31.2339748%" r="75.3210788%" gradientTransform="translate(0.437279,0.312340),scale(0.762963,1.000000),translate(-0.437279,-0.312340)" id="radialGradient-2">
            <stop stop-color="#106EBE" offset="0%"></stop>
            <stop stop-color="#0086F0" offset="100%"></stop>
        </radialGradient>
    </defs>
    <g id="illustration_mail" stroke="none" stroke-width="1" fill="none" fill-rule="evenodd">
        <g id="Android-/-Dark-/-illustration_mail" fill-rule="nonzero">
            <path d="M117.476654,13.9312384 L54.1676598,1.56645648 C52.4829667,1.22058845 50.8869416,2.25819253 50.6209374,3.90106565 L42.8181482,41.8600814 C42.4634759,43.5029545 43.5274926,45.0593606 45.2121858,45.3187616 L108.609848,57.6835435 C110.294542,58.0294115 111.890567,56.9918075 112.156571,55.3489344 L119.95936,17.3899186 C120.225364,15.8335125 119.161348,14.2771064 117.476654,13.9312384 Z" id="mail" fill="url(#radialGradient-1)"></path>
            <path d="M53.7555548,1.5277606 L54.0102309,1.53809385 L54.0102309,1.53809385 L54.1676598,1.56645648 L117.476654,13.9312384 C118.433382,14.1276549 119.189939,14.7144747 119.61641,15.4699901 L80.897772,36.75 L52.5,1.99971147 C52.8538663,1.75211412 53.2943938,1.58940729 53.7555548,1.5277606 L53.8535465,1.5176736 L53.7555548,1.5277606 Z" id="mail" fill="#797673"></path>
            <path d="M101.071662,91.8980093 L89.4778158,45.6556659 C88.681292,42.572843 85.4951967,40.6350686 82.3976041,41.4277945 L4.42677332,60.8055384 C1.32918073,61.5982643 -0.617877477,64.7691678 0.178646334,67.8519907 L11.6839903,114.094334 C12.4805141,117.177157 15.6666093,119.114931 18.7642019,118.322205 L96.7350327,98.9444616 C99.921128,98.1517357 101.868186,94.9808322 101.071662,91.8980093 Z" id="mail" fill="url(#radialGradient-2)"></path>
            <path d="M4.42677332,60.8055384 L82.3976041,41.4277945 C84.1311691,40.9841462 85.8924537,41.39571 87.2470861,42.3845784 L53.4583333,89.25 L0.632728909,63.846022 C1.34460676,62.4522011 2.61264328,61.3404912 4.20731504,60.8662264 L4.42677332,60.8055384 L82.3976041,41.4277945 L4.42677332,60.8055384 Z" id="mail" fill="#0086F0"></path>
        </g>
    </g>
</svg>